<svg id="Layer_1" data-name="Layer 1" xmlns="http://www.w3.org/2000/svg" width="323.48876" height="201.31773" viewBox="0 0 323.48876 201.31773"><defs><style>.cls-1,.cls-2,.cls-3,.cls-4,.cls-5{fill:none;}.cls-1{stroke:#a8a8a7;}.cls-1,.cls-2,.cls-3,.cls-4,.cls-5,.cls-6{stroke-miterlimit:10;stroke-width:8px;}.cls-2{stroke:#878787;}.cls-2,.cls-3,.cls-4,.cls-5,.cls-6{stroke-linecap:round;}.cls-3{stroke:#706f6f;}.cls-4{stroke:#575756;}.cls-5{stroke:#3c3c3b;}.cls-6{fill:#432918;stroke:#432918;}</style></defs><title>userjourney</title><circle class="cls-1" cx="65.71387" cy="132.51758" r="61.71387"/><line class="cls-1" x1="27.52447" y1="84.05817" x2="101.31289" y2="182.9136"/><line class="cls-1" x1="16.087" y1="169.20551" x2="116.00971" y2="96.74701"/><line class="cls-1" x1="76.82884" y1="71.82133" x2="53.83653" y2="197.54088"/><line class="cls-1" x1="4.57009" y1="124.22874" x2="127.42775" y2="144.61306"/><circle class="cls-1" cx="255.24934" cy="131.32155" r="61.71387"/><line class="cls-1" x1="217.05994" y1="82.86213" x2="290.84835" y2="181.71756"/><line class="cls-1" x1="205.62246" y1="168.00947" x2="305.54517" y2="95.55098"/><line class="cls-1" x1="266.3643" y1="70.6253" x2="243.37199" y2="196.34485"/><line class="cls-1" x1="194.10555" y1="123.03271" x2="316.96321" y2="143.41703"/><line class="cls-2" x1="145.61505" y1="131.32155" x2="228.60731" y2="47.52625"/><line class="cls-2" x1="65.33268" y1="132.97626" x2="105.07309" y2="46.67143"/><line class="cls-2" x1="255.24934" y1="131.32155" x2="232.05345" y2="49.67164"/><line class="cls-2" x1="105.08481" y1="46.6753" x2="228.6109" y2="47.52786"/><path class="cls-2" d="M144.6952,146.72587,81.922,142.03651c-8.50756,0-15.87368-2.20739-15.87368-10.71495v0c0-8.50756,7.36612-10.37075,15.87368-10.37075l62.77316-5.03355a15.40431,15.40431,0,0,1,15.40431,15.4043v0A15.40432,15.40432,0,0,1,144.6952,146.72587Z"/><line class="cls-2" x1="145.61505" y1="131.32155" x2="105.07309" y2="46.67143"/><circle class="cls-3" cx="143.89827" cy="130.52463" r="16.20124"/><line class="cls-3" x1="128.86401" y1="133.48588" x2="145.61505" y2="131.32155"/><line class="cls-3" x1="144.60195" y1="133.48588" x2="143.89827" y2="144.24549"/><line class="cls-3" x1="145.61505" y1="131.32155" x2="157.53276" y2="137.8649"/><line class="cls-4" x1="145.01641" y1="131.92825" x2="174.22679" y2="120.20852"/><line class="cls-5" x1="164.35069" y1="119.2546" x2="185.77469" y2="120.4917"/><line class="cls-4" x1="231.62569" y1="45.29977" x2="244.07916" y2="31.08357"/><path class="cls-5" d="M243.49631,31.73666c25.07377,8.371,37.31952-.43918,41.46375-20.10033"/><path class="cls-5" d="M241.77306,29.59621c16.10639-3.45111,25.18907-12.77932,29.836-25.81936"/><line class="cls-4" x1="104.6904" y1="48.01553" x2="104.6904" y2="28.36782"/><path class="cls-6" d="M119.27008,33.2249,95.88882,37.82661c-5.90168,0-10.68593-4.27091-10.68593-9.53935h0c0-5.26844,4.78425-9.53935,10.68593-9.53935l24.26583,3.86053c5.26651,1.34774,13.6599,2.41062,11.92233,5.67884h0C130.58965,31.30769,123.87287,31.60308,119.27008,33.2249Z"/></svg>
