<svg xmlns="http://www.w3.org/2000/svg" viewBox="0 0 225 225"><defs><style>.cls-1{fill:#ccc;}</style></defs><title>ficon_1</title><g id="Layer_2" data-name="Layer 2"><g id="Layer_1-2" data-name="Layer 1"><path class="cls-1" d="M112.5,5a107.49,107.49,0,0,1,76,183.51,107.49,107.49,0,1,1-152-152A106.77,106.77,0,0,1,112.5,5m0-5A112.5,112.5,0,1,0,225,112.5,112.5,112.5,0,0,0,112.5,0Z"/><path class="cls-1" d="M122.18,144.06q0,15.33,0,30.66c0,.74-.17.95-.93.94q-12,0-24,0c-.8,0-1-.23-1-1q0-30.57,0-61.16c0-.88-.24-1-1.06-1-3.71,0-7.42,0-11.13,0-.57,0-.77-.11-.77-.73q0-10.14,0-20.3c0-.6.16-.75.75-.75,3.77,0,7.54,0,11.3,0,.78,0,.91-.23.91-.94,0-5.3-.17-10.59.12-15.88a32.94,32.94,0,0,1,2.76-12c2.81-6.1,7.75-9.56,14.08-11.29a44,44,0,0,1,11.43-1.3c5.35,0,10.7,0,16.05,0,.73,0,.88.2.88.89q0,10,0,20.05c0,.7-.17.89-.88.88-3.68,0-7.36,0-11,0a13.82,13.82,0,0,0-3.2.4,5,5,0,0,0-4.1,4.59,20.11,20.11,0,0,0-.18,2.79c0,3.65,0,7.31,0,11,0,.65.15.85.83.85,5.95,0,11.89,0,17.84,0,.7,0,.88.12.8.87-.7,6.32-1.35,12.65-2,19-.07.62.13,1.44-.28,1.8s-1.25.12-1.89.12c-4.78,0-9.57,0-14.35,0-.73,0-.94.15-.94.91Q122.21,128.72,122.18,144.06Z"/></g></g></svg>
