<svg id="Layer_1" data-name="Layer 1" xmlns="http://www.w3.org/2000/svg" width="402.09716" height="439.37355" viewBox="0 0 402.09716 439.37355"><defs><style>.cls-1{fill:#e94e1b;}.cls-2,.cls-7{fill:#f39200;}.cls-3{fill:#f9e885;}.cls-4{fill:#2d2e83;}.cls-5{fill:#fff;}.cls-6{fill:#29235c;}.cls-7{stroke:#e94e1b;stroke-miterlimit:10;}.cls-8{fill:#3c3c3b;}.cls-9{fill:#343333;}</style></defs><title>userjourney</title><rect class="cls-1" x="197.91986" y="294.50765" width="24.88594" height="88.84249" rx="1.26872"/><rect class="cls-2" x="165.50854" y="331.83594" width="24.88594" height="88.84249" rx="1.26872"/><rect class="cls-1" x="159.93146" y="182.27784" width="24.88594" height="137.86585" transform="translate(-117.77905 158.30893) rotate(-37.78896)"/><rect class="cls-2" x="216.74483" y="192.69494" width="24.88594" height="162.90825" transform="translate(195.66755 -81.60528) rotate(34.51283)"/><rect class="cls-2" x="119.56621" y="209.83227" width="24.88594" height="145.37217" transform="translate(-145.42861 140.14098) rotate(-37.78896)"/><path class="cls-2" d="M135.829,227.68531,41.81433,239.5454a27.61857,27.61857,0,0,1-29.02452-26.74823L0,96.86983H135.829Z"/><path class="cls-3" d="M371.34031,184.867c1.78281,4.29293,9.72442,35.43653-23.03994,39.2951-61.45441,7.23733-185.51523-13.09181-194.9823-5.24984-33.64046,27.86562-77.72637-6.899-136.08822-79.13565C-47.84129,59.23563,85.44261,7.34591,183.17782,7.34591S330.594,86.75162,371.34031,184.867Z"/><path class="cls-4" d="M396.84347,185.35079c45.17509,94.96107-214.94633-19.69923-246.8315,15.74872s-69.69045-4.24578-129.573-76.96028C-43.88519,46.0313,91.05962,0,192.24483,0S353.37538,93.978,396.84347,185.35079Z"/><path class="cls-1" d="M72.76369,216.91275l-40.41486,4.62249a5.80888,5.80888,0,0,1-6.43134-5.11116l-5.24124-45.82469a1.52612,1.52612,0,0,1,2.5323-1.31212L48.1846,191.5737l25.42175,22.68413A1.52611,1.52611,0,0,1,72.76369,216.91275Z"/><path class="cls-5" d="M67.27513,208.61929,38.1357,211.95214a3.86464,3.86464,0,0,1-4.27876-3.40045l-3.78966-33.13341,18.60393,16.60051Z"/><path class="cls-6" d="M142.48685,47.242c-2.416,2.67486-32.95087,9.80636-50.76387,14.63715C72.44844,67.10627,70.1664,55.32583,70.1664,47.242s16.18949-14.63708,36.16022-14.63708S147.9053,41.24306,142.48685,47.242Z"/><path class="cls-5" d="M128.83653,52.12139c-2.36233.939-23.78224,6.11253-35.66931,9.33624C80.30484,64.94584,78.782,57.08445,78.782,51.6899s10.80365-9.76768,24.13063-9.76768S133.84949,50.12876,128.83653,52.12139Z"/><path class="cls-6" d="M243.70606,113.27427c5.10873,15.62012-13.23574,33.38222-40.8006,14.34187-25.27643-17.45963-71.53961-13.32222-69.49754-28.84861S161.79651,73.902,192.2545,77.90787,238.838,98.39,243.70606,113.27427Z"/><path class="cls-5" d="M233.101,120.22474c2.66246,11.44306-11.51115,22.9465-29.9522,7.665-16.91007-14.01288-50.115-13.9563-47.69087-24.88593S177.22828,87.069,198.66882,91.82443,230.564,109.32077,233.101,120.22474Z"/><path class="cls-6" d="M142.90067,162.213c-3.37715,7.33277-23.16808,5.4232-44.20427-4.26513s-35.35169-23.48668-31.97454-30.81945,21.112,2.94244,42.14819,12.63078S146.27782,154.88017,142.90067,162.213Z"/><path class="cls-5" d="M130.35844,152.77181c-1.41946,3.08206-13.95878.33547-28.00736-6.13468s-24.2865-14.21375-22.867-17.29581,13.46148,3.3497,27.51006,9.81985S131.77791,149.68974,130.35844,152.77181Z"/><ellipse class="cls-6" cx="314.26095" cy="153.49424" rx="7.93582" ry="30.23217" transform="translate(42.32601 373.43018) rotate(-64.99753)"/><ellipse class="cls-5" cx="316.45657" cy="151.69937" rx="5.38116" ry="23.57123" transform="translate(45.22031 374.3838) rotate(-64.99753)"/><path class="cls-6" d="M231.938,44.51124c4.43936,12.33229-1.13117,28.18682-15.92315,14.77184-13.56395-12.30126-33.32155-5.42486-34.60406-18.22293s8.98872-22.40041,22.94143-21.44742S227.70777,32.75993,231.938,44.51124Z"/><path class="cls-5" d="M228.25173,50.97505c2.77736,9.11632-1.83842,19.55818-12.09149,8.51234-9.40186-10.12881-23.99175-7.56543-24.46079-16.64928s7.33323-14.62625,17.42686-12.3793S225.60521,42.2882,228.25173,50.97505Z"/><path class="cls-6" d="M329.23565,122.64529c-3.88132-.76107-37.37723-25.938-57.30869-40.23428-21.56681-15.46928-16.88827-24.53276-12.17333-29.2477s24.09123,7.01692,43.27816,26.20384S337.94034,124.35218,329.23565,122.64529Z"/><path class="cls-5" d="M313.27514,112.37667c-2.81731-1.72193-26.414-19.28366-39.71478-28.82394-14.39207-10.323-11.27-16.37132-8.12357-19.51772s16.07669,4.68256,28.88061,17.48648S319.25356,116.03068,313.27514,112.37667Z"/><ellipse class="cls-7" cx="177.95151" cy="342.93033" rx="16.12065" ry="21.57682"/><path class="cls-8" d="M187.10316,420.34312v11.613a6.74134,6.74134,0,0,1-4.02843,6.167V428.03953h-2.71049v9.04283l-1.69818,2.29119-1.99461-2.12946v-9.20456h-2.72293v10.15821a6.72765,6.72765,0,0,1-4.215-6.24164v-11.613a6.747,6.747,0,0,1,6.739-6.7513h3.89169A6.74691,6.74691,0,0,1,187.10316,420.34312Z"/><rect class="cls-9" x="200.23317" y="370.06525" width="20.25932" height="27.01243" rx="1.03285"/></svg>
