<svg xmlns="http://www.w3.org/2000/svg" viewBox="0 0 225 225"><defs><style>.cls-1{fill:#ccc;}</style></defs><title>iicon_1</title><g id="Layer_2" data-name="Layer 2"><g id="Layer_1-2" data-name="Layer 1"><path class="cls-1" d="M112.5,5a107.49,107.49,0,0,1,76,183.51,107.49,107.49,0,1,1-152-152A106.77,106.77,0,0,1,112.5,5m0-5A112.5,112.5,0,1,0,225,112.5,112.5,112.5,0,0,0,112.5,0Z"/><path class="cls-1" d="M176.11,171.06H148.56v-4.21c0-13.41,0-26.82,0-40.23a33.94,33.94,0,0,0-.48-5.87c-1.55-8.48-5.49-12-12.73-11.42a13.86,13.86,0,0,0-12.87,13.94c-.13,14.46,0,28.92,0,43.38v4.41H94.86V90.24h27.2c.16,3.21.31,6.4.52,10.53,7.38-11.1,17.48-13.88,29-12,13.22,2.17,22.51,11.88,23.58,25.87s.72,28.08.94,42.13C176.18,161.48,176.11,166.17,176.11,171.06Z"/><path class="cls-1" d="M54.9,90.19H81.74V171H54.9Z"/><path class="cls-1" d="M67.7,51.94c8.78,0,14.94,5.68,14.93,13.8,0,7.92-6.49,13.82-15.11,13.77-8.45-.05-14.59-5.81-14.66-13.75C52.79,57.57,58.82,52,67.7,51.94Z"/></g></g></svg>
