<svg xmlns="http://www.w3.org/2000/svg" viewBox="0 0 2214.54 395.59"><defs><style>.cls-1{fill:#fff;}.cls-2{fill:#6ccb47;}.cls-3{fill:#fdfdfd;}</style></defs><title>Asset 3</title><g id="Layer_2" data-name="Layer 2"><g id="Layer_1-2" data-name="Layer 1"><path class="cls-1" d="M458.77,395.06V395c16,0,32,.44,48-.12,17.6-.63,34.21-7.39,39.51-24.37,9.92-31.81,11.27-69.16-26.69-85.32-19.94-8.49-38.73-19.7-58.69-28.11-13.12-5.53-15.81-14.69-13.44-26.58,2.46-12.34,12.43-13.39,22.77-13.31,15.1.12,30.2.17,45.3,0,26.17-.29,21.32,3.18,22.28-22.94.34-9.16-2.41-12.64-11.9-12.46-25.75.49-51.52-.08-77.27.26-17.54.23-32.26,6.71-40.62,23-15.53,30.28-2.85,68.52,27.38,83,19.95,9.57,40.11,18.69,60.18,28,13.15,6.1,13.95,17.63,11.82,29.43-2.19,12.1-12.05,14.06-22.47,14.07q-30.64,0-61.29,0c-23.55,0-23,0-23.35,23.21-.16,10.44,3.72,12.82,13.24,12.4C428.55,394.56,443.68,395.06,458.77,395.06Z"/><path class="cls-1" d="M1881.59,394.75h-32.7a3.65,3.65,0,0,1-3.66-3.64c-.06-16.75-.28-86.76.25-112.47.07-3.48-.06-9.16-.16-12.4a2.56,2.56,0,0,0-2.56-2.49h-21.69a2.82,2.82,0,0,1-2.82-2.82V235.57a2.82,2.82,0,0,1,2.82-2.82h21.69a2.56,2.56,0,0,0,2.56-2.49c.09-2.8.23-7.38.31-10.49.82-32.52,13.17-44.8,45.92-48.18,4-.4,8-.27,12-.28,7.38,0,15.41.22,19.32.35a2.49,2.49,0,0,1,2.4,2.49V201a2.49,2.49,0,0,1-2.74,2.48c-3.27-.32-8.6-.8-10.94-.8-12.38,0-21.6,4.37-25.4,17-1,3.17-1.06,7.79-1,10.62a2.56,2.56,0,0,0,2.55,2.53c2.28,0,5.74,0,8.54,0,9-.12,63,0,63,0l5,31h-76.43a2.57,2.57,0,0,0-2.57,2.57V391.1A3.66,3.66,0,0,1,1881.59,394.75Z"/><path class="cls-1" d="M893.79,121.75H877a1.87,1.87,0,0,1-1.88-1.87c0-8.6-.14-44.57.13-57.78,0-1.78,0-4.7-.08-6.37a1.32,1.32,0,0,0-1.32-1.27H862.7A1.45,1.45,0,0,1,861.25,53V40a1.45,1.45,0,0,1,1.45-1.45h11.14a1.32,1.32,0,0,0,1.32-1.27c0-1.44.11-3.8.15-5.4.42-16.7,6.77-23,23.59-24.74A60.18,60.18,0,0,1,905.06,7c3.79,0,7.92.11,9.93.18a1.27,1.27,0,0,1,1.22,1.28V22.22a1.27,1.27,0,0,1-1.4,1.27c-1.68-.16-4.42-.41-5.62-.41-6.36,0-11.1,2.25-13.05,8.71a20.4,20.4,0,0,0-.52,5.45,1.31,1.31,0,0,0,1.31,1.3c1,0,12.67.15,16.27.2a1.06,1.06,0,0,1,1,1.06V53.39a1.07,1.07,0,0,1-1.07,1.07H897a1.31,1.31,0,0,0-1.31,1.31v64.1A1.88,1.88,0,0,1,893.79,121.75Z"/><path class="cls-1" d="M459.25,395.06c-12.21,0-42.58-.2-53.77-.28a4.26,4.26,0,0,1-4.23-4.26V364a4.26,4.26,0,0,1,4.22-4.26c4.4,0,11.63-.08,18.6-.08q30.65,0,61.29,0c10.42,0,20.29-2,22.47-14.07,2.13-11.8,1.33-23.33-11.82-29.43-20.07-9.32-40.23-18.44-60.17-28a64.54,64.54,0,0,1-28.59-28.36c-8.49-17-8-36.66,1.2-54.68,8.36-16.31,23.08-22.79,40.62-23,22.11-.29,72-.3,85.65-.3a3.53,3.53,0,0,1,3.53,3.53v28a3.53,3.53,0,0,1-3.49,3.53c-12,.12-51.35.5-64.1.4-10.34-.08-20.31,1-22.77,13.31-2.37,11.89.32,21.05,13.44,26.58,20,8.41,38.75,19.62,58.69,28.11,38,16.16,39.23,52.56,26.69,85.32-6.46,16.24-21.91,23.74-39.51,24.37-16,.56-32,.12-47.95.12Z"/><path class="cls-1" d="M700.74,199.75h31a4.5,4.5,0,0,1,4.5,4.5v86.5h13l42.08-54.24a9.71,9.71,0,0,1,7.67-3.76h33.12a3.49,3.49,0,0,1,2.76,5.63l-54.63,70.37,63.53,80.35a3.49,3.49,0,0,1-2.74,5.65h-33.1a9.7,9.7,0,0,1-7.61-3.67l-51.08-64.33h-13v63.5a4.5,4.5,0,0,1-4.5,4.5h-31a4.49,4.49,0,0,1-4.49-4.5v-186A4.49,4.49,0,0,1,700.74,199.75Z"/><path class="cls-1" d="M866.74,199.75h31a4.5,4.5,0,0,1,4.5,4.5v86.5h13l42.08-54.24a9.71,9.71,0,0,1,7.67-3.76h33.12a3.49,3.49,0,0,1,2.76,5.63l-54.63,70.37,63.53,80.35a3.49,3.49,0,0,1-2.74,5.65h-33.1a9.7,9.7,0,0,1-7.61-3.67l-51.08-64.33h-13v63.5a4.5,4.5,0,0,1-4.5,4.5h-31a4.49,4.49,0,0,1-4.49-4.5v-186A4.49,4.49,0,0,1,866.74,199.75Z"/><path class="cls-1" d="M2070.74,199.75h31a4.5,4.5,0,0,1,4.5,4.5v86.5h13l42.08-54.24a9.71,9.71,0,0,1,7.67-3.76h33.12a3.49,3.49,0,0,1,2.76,5.63l-54.63,70.37,63.53,80.35a3.49,3.49,0,0,1-2.74,5.65h-33.1a9.7,9.7,0,0,1-7.61-3.67l-51.08-64.33h-13v63.5a4.5,4.5,0,0,1-4.5,4.5h-31a4.49,4.49,0,0,1-4.49-4.5v-186A4.49,4.49,0,0,1,2070.74,199.75Z"/><path class="cls-1" d="M1062.56,326.75a2.46,2.46,0,0,0-2.46,2.35,44.49,44.49,0,0,0,.12,6.82c1.81,14.31,15.42,25.86,33.47,26.88,11.28.64,38.53.86,49.18.93a4.4,4.4,0,0,1,4.38,4.4v22.42A4.4,4.4,0,0,1,1143,395c-13.4.57-55.26,1.92-73.89-2.6-31.19-7.58-47.9-28.6-48.91-61,0-10.63-1.87-39,1.42-58.44,3.49-20.53,15.54-33.43,35.18-39.1,21.37-6.17,43-6.69,64.16.73s32,23,32.34,45.39c.15,9.85,0,33.5-.06,42.87a4,4,0,0,1-4,3.92Zm49.44-28a3.29,3.29,0,0,0,3.29-3.27,98.75,98.75,0,0,0-.39-10.28c-1.12-9.67-1.25-16.95-11.65-21.45-11.2-4.85-26.47-5-36.55,3.64-6.55,5.62-6.79,21.77-6.59,28.43a3,3,0,0,0,3,2.93Z"/><path class="cls-1" d="M708.36,86.81A1.24,1.24,0,0,0,707.12,88a22.13,22.13,0,0,0,0,3.45c.92,7.23,7.8,13.06,16.91,13.58,5.7.32,19.47.43,24.85.46a2.23,2.23,0,0,1,2.21,2.23V119a2.24,2.24,0,0,1-2.13,2.23c-6.77.29-27.91,1-37.32-1.32-15.76-3.82-24.2-14.44-24.71-30.8,0-5.37-1-19.71.72-29.52,1.76-10.37,7.84-16.89,17.77-19.75,10.79-3.12,21.7-3.38,32.41.37S754,51.87,754.21,63.18c.08,5,0,16.92,0,21.65a2,2,0,0,1-2,2Zm25-14.14A1.67,1.67,0,0,0,735,71c0-1.49,0-3.67-.2-5.2-.57-4.88-.63-8.56-5.89-10.83-5.66-2.45-13.37-2.53-18.46,1.84-3.31,2.84-3.43,11-3.33,14.36a1.52,1.52,0,0,0,1.53,1.48Z"/><path class="cls-1" d="M1409.13,216.75h-54.76a3.12,3.12,0,0,1-3.12-3.12V184.87a3.12,3.12,0,0,1,3.12-3.12h158.76a3.12,3.12,0,0,1,3.12,3.12v28.76a3.12,3.12,0,0,1-3.12,3.12h-55.76a3.12,3.12,0,0,0-3.12,3.12V391.63a3.12,3.12,0,0,1-3.12,3.12h-35.76a3.12,3.12,0,0,1-3.12-3.12V219.87A3.12,3.12,0,0,0,1409.13,216.75Z"/><path class="cls-1" d="M1183.25,391.71V366.79a3,3,0,0,1,3-3h15.33a2.64,2.64,0,0,0,2.64-2.63V266.38a2.64,2.64,0,0,0-2.64-2.63h-15.33a3,3,0,0,1-3-3V235.76a3,3,0,0,1,3-3c12.48-.12,60.65-.53,82.17,0,29.9.76,42.83,19,42.83,39-.15,1,0,17,0,19,0,1.36-1,2-2.36,2.06-1.06,0-22.48,0-30.58-.05a3,3,0,0,1-3-3.06c0-2.42,0-5.73,0-7.95-.54-15-9-18-26-18h-3.37a2.63,2.63,0,0,0-2.63,2.63v94.74a2.63,2.63,0,0,0,2.63,2.63h36.33a3,3,0,0,1,3,3v24.92a3,3,0,0,1-3,3h-95.93A3,3,0,0,1,1183.25,391.71Z"/><path class="cls-1" d="M1005.25,120.22v-12.6a1.52,1.52,0,0,1,1.53-1.53h7.75a1.34,1.34,0,0,0,1.33-1.33V56.89a1.34,1.34,0,0,0-1.33-1.33h-7.75a1.53,1.53,0,0,1-1.53-1.53V41.42a1.53,1.53,0,0,1,1.51-1.54c6.31-.06,30.65-.27,41.52,0,15.11.39,21.64,9.61,21.64,19.71-.07.51,0,8.59,0,9.6,0,.69-.5,1-1.19,1-.54,0-11.36,0-15.45,0a1.55,1.55,0,0,1-1.53-1.55c0-1.22,0-2.9,0-4-.27-7.56-4.55-9.09-13.13-9.09h-1.71a1.34,1.34,0,0,0-1.33,1.33v47.87a1.34,1.34,0,0,0,1.33,1.33h18.36a1.53,1.53,0,0,1,1.54,1.53v12.6a1.54,1.54,0,0,1-1.54,1.53h-48.47A1.53,1.53,0,0,1,1005.25,120.22Z"/><path class="cls-1" d="M1518.25,391.71V366.79a3,3,0,0,1,3-3h15.33a2.64,2.64,0,0,0,2.64-2.63V266.38a2.64,2.64,0,0,0-2.64-2.63h-15.33a3,3,0,0,1-3-3V235.76a3,3,0,0,1,3-3c12.48-.12,60.65-.53,82.17,0,29.9.76,42.83,19,42.83,39-.15,1,0,17,0,19,0,1.36-1,2-2.36,2.06-1.06,0-22.48,0-30.58-.05a3,3,0,0,1-3-3.06c0-2.42,0-5.73,0-7.95-.54-15-9-18-26-18h-3.37a2.63,2.63,0,0,0-2.63,2.63v94.74a2.63,2.63,0,0,0,2.63,2.63h36.33a3,3,0,0,1,3,3v24.92a3,3,0,0,1-3,3h-95.93A3,3,0,0,1,1518.25,391.71Z"/><path class="cls-1" d="M643.44,364.75h20.94a2.88,2.88,0,0,1,2.87,2.87v24.26a2.88,2.88,0,0,1-2.87,2.87H576.86a2.61,2.61,0,0,1-2.61-2.61V367.36a2.61,2.61,0,0,1,2.61-2.61h19.62a3.75,3.75,0,0,0,3.76-3.76c0-12.57,0-81.76,0-95a2.2,2.2,0,0,0-2.21-2.2H583.49a3.24,3.24,0,0,1-3.24-3.24V236a3.24,3.24,0,0,1,3.24-3.24h54.36a2.36,2.36,0,0,1,2.35,2.39c-.05,2.26,0,108.9,0,126.42A3.2,3.2,0,0,0,643.44,364.75Z"/><path class="cls-1" d="M469.23,73c8,11.62,27.57,39.44,32.69,46.83a1.22,1.22,0,0,1-1,1.91H482.05a3.48,3.48,0,0,1-2.84-1.47L447.84,75.59a3.22,3.22,0,0,1-.59-1.87V59.83a2.08,2.08,0,0,1,2.07-2.08h18.87a8.06,8.06,0,0,0,8.06-8.06V31.81a8.06,8.06,0,0,0-8.06-8.06H440.37a2.12,2.12,0,0,0-2.12,2.12v93.46a2.42,2.42,0,0,1-2.42,2.42H419.66a2.41,2.41,0,0,1-2.41-2.41c0-11.5,0-61.18,0-83.49,0-3.56,0-12.1,0-12.1h-8.73a2.27,2.27,0,0,1-2.27-2.27V10a2.26,2.26,0,0,1,2.24-2.27c9.88-.09,49.7-.4,67.51.19,10.16.33,17.53,6.1,19.81,16.63A72.81,72.81,0,0,1,496,54.92C493.57,66.34,490.25,70.75,469.23,73Z"/><path class="cls-1" d="M778.85,54.75H767.79a1.54,1.54,0,0,1-1.54-1.54V40.29a1.54,1.54,0,0,1,1.54-1.54h11.07a1.39,1.39,0,0,0,1.39-1.39V19.29a1.54,1.54,0,0,1,1.54-1.54h16.92a1.54,1.54,0,0,1,1.54,1.54V37.36a1.38,1.38,0,0,0,1.38,1.39h16.08a1.54,1.54,0,0,1,1.54,1.54V53.21a1.54,1.54,0,0,1-1.54,1.54H801.63a1.38,1.38,0,0,0-1.38,1.38c0,5.66-.06,27.11-.33,33.61-.4,9.51.92,17,13.26,16,1.24-.1,3.2-.07,4.56,0a1.55,1.55,0,0,1,1.51,1.55v13.11a1.54,1.54,0,0,1-1.39,1.54,51,51,0,0,1-5.2.34c-4.87-.09-9.75.12-14.62-.07-12.15-.46-19-6-18.31-19,.3-5.51.48-39.64.51-47A1.39,1.39,0,0,0,778.85,54.75Z"/><path class="cls-1" d="M641.94,192.28c0,13.77-10.87,24.45-24.42,24.09-12.67-.33-23.36-11.39-23.38-24.19,0-13.12,11.66-24.47,24.81-24.09A23.92,23.92,0,0,1,641.94,192.28Z"/><path class="cls-1" d="M2013.44,364.75h20.94a2.88,2.88,0,0,1,2.87,2.87v24.26a2.88,2.88,0,0,1-2.87,2.87h-87.52a2.61,2.61,0,0,1-2.61-2.61V367.36a2.61,2.61,0,0,1,2.61-2.61h19.62a3.75,3.75,0,0,0,3.76-3.76c0-12.57,0-81.76,0-95a2.2,2.2,0,0,0-2.21-2.2h-14.55a3.24,3.24,0,0,1-3.24-3.24V236a3.24,3.24,0,0,1,3.24-3.24h54.36a2.36,2.36,0,0,1,2.35,2.39c0,2.26,0,108.9,0,126.42A3.2,3.2,0,0,0,2013.44,364.75Z"/><path class="cls-1" d="M2011.94,192.28c0,13.77-10.87,24.45-24.42,24.09-12.67-.33-23.36-11.39-23.38-24.19,0-13.12,11.66-24.47,24.81-24.09A23.92,23.92,0,0,1,2011.94,192.28Z"/><path class="cls-1" d="M1757.16,378.87a2,2,0,0,0-3.52-.2c-5,8.85-12.58,15.54-22,16.13-15.89,1-25.5,1-37.6-.64a32.83,32.83,0,0,1-6.17-1.88c-17.47-6-26.67-18.69-28.39-36.65-1.93-20.15,3.48-37.21,22.93-47C1698.07,300.74,1740,294,1748,292.7a2,2,0,0,0,1.63-1.59c.18-1,.41-2.44.53-3.86.71-8.25.18-16.16-7.91-21.19-6.21-3.86-12.89-5.41-20.25-5.65-13.9-.47-27.56,1.62-41.23,3.25-2.54.3-7.08.74-9.76,1a2,2,0,0,1-2.14-2V237.84a5.06,5.06,0,0,1,4.18-5c3.94-.69,10.08-1.66,15.86-2.16,19.08-1.78,38-3.34,57.16.12,29.79,5.38,44.23,21.95,44.29,52.15q.07,32.07,0,64.14c0,7.63-1.35,15.07,7.05,17.47a11.79,11.79,0,0,0,1.79.55,5.57,5.57,0,0,1,4.22,5.44v18.55a5.49,5.49,0,0,1-5.49,5.49h-5.32C1777.1,394.6,1763.55,394.68,1757.16,378.87Zm-6.91-56.79a2,2,0,0,0-2.43-1.92c-12,2.87-22.43,5.21-32.79,8-10.7,2.91-16.64,9.78-15.53,21.38s9.79,13.53,19.07,14.1c23.17,1.43,31.5-6.46,31.68-29.74C1750.27,330.21,1750.26,326.49,1750.25,322.08Z"/><path class="cls-1" d="M562.94,114a1,1,0,0,0-1.79-.1c-2.54,4.5-6.39,7.9-11.19,8.2-8.07.51-13,.51-19.11-.33a16.89,16.89,0,0,1-3.13-1c-8.88-3.06-13.55-9.5-14.43-18.63-1-10.24,1.77-18.91,11.65-23.89,8-4,29.26-7.45,33.35-8.09a1,1,0,0,0,.83-.81c.09-.51.21-1.24.27-2,.36-4.19.09-8.21-4-10.77a20.09,20.09,0,0,0-10.29-2.87c-7.06-.24-14,.82-21,1.65-1.29.15-3.6.38-5,.51a1,1,0,0,1-1.09-1V42.37a2.56,2.56,0,0,1,2.13-2.53c2-.35,5.12-.85,8-1.1,9.7-.91,19.33-1.7,29,.06,15.14,2.73,22.48,11.15,22.51,26.5q0,16.29,0,32.6c0,3.87-.69,7.65,3.58,8.87a5.4,5.4,0,0,0,.91.29,2.82,2.82,0,0,1,2.14,2.76v9.43a2.79,2.79,0,0,1-2.79,2.79H581C573.07,122,566.19,122.08,562.94,114Zm-3.51-28.86a1,1,0,0,0-1.24-1c-6.07,1.45-11.4,2.64-16.66,4.07-5.44,1.48-8.46,5-7.9,10.87s5,6.87,9.7,7.16c11.77.73,16-3.28,16.09-15.11C559.44,89.31,559.43,87.42,559.43,85.18Z"/><path class="cls-1" d="M550,0a17.5,17.5,0,1,0,17.5,17.5A17.5,17.5,0,0,0,550,0Zm0,24.5a7,7,0,1,1,7-7A7,7,0,0,1,550,24.5Z"/><path class="cls-1" d="M668.65,8.75H650.84a1.59,1.59,0,0,0-1.59,1.6V36.18a2.5,2.5,0,0,1-2.59,2.5c-3.19-.11-8.78-.37-13.43-1-23.66-3-34.66,8.28-34.71,31.71q0,11.31,0,22.61c0,23.8,7.78,31.63,31.85,31.79a99.26,99.26,0,0,0,18.49-1.29c15.86-2.93,21.16-9.3,21.44-25.29.22-12.85,0-25.72,0-38.58,0-12-.07-41.21-.09-48.34A1.59,1.59,0,0,0,668.65,8.75Zm-19.4,93.59a2.12,2.12,0,0,1-1.39,2c-3.32,1.26-7.62,3.42-12.45,3.42h-4.32a13.88,13.88,0,0,1-13.84-13.84V68.59A13.86,13.86,0,0,1,630,54.81a29.2,29.2,0,0,1,4.65-.32,67.73,67.73,0,0,1,12.51,1.76,2.69,2.69,0,0,1,2.11,2.63Z"/><path class="cls-1" d="M971.08,37H948.79C936,37,924.44,48.52,924.44,61.37V97.58c0,12.84,11.51,24.35,24.35,24.35h22.29c12.85,0,24.36-11.51,24.36-24.35V61.37C995.44,48.52,983.93,37,971.08,37Zm4.16,57c0,6.6-5.4,13-12,13h-6.6c-6.6,0-12-6.4-12-13V64.93c0-6.6,5.4-13,12-13h6.6c6.6,0,12,6.4,12,13Z"/><circle class="cls-2" cx="148.5" cy="242.8" r="148.5"/><rect class="cls-3" x="78" y="329.75" width="141" height="16" rx="1.24"/><path class="cls-1" d="M155.5,148.84V138.5a1.75,1.75,0,0,1,1.75-1.75H168.8a1.7,1.7,0,0,0,1.7-1.7v-11.6a1.7,1.7,0,0,0-1.7-1.7H157.25A1.75,1.75,0,0,1,155.5,120V108.45a1.7,1.7,0,0,0-1.7-1.7H142.2a1.7,1.7,0,0,0-1.7,1.7V120a1.75,1.75,0,0,1-1.75,1.75H128.2a1.7,1.7,0,0,0-1.7,1.7v11.6a1.7,1.7,0,0,0,1.7,1.7h10.55a1.75,1.75,0,0,1,1.75,1.75v10.68a23,23,0,1,0,15-.34Zm-7,31.91a10,10,0,1,1,10-10A10,10,0,0,1,148.5,180.75Z"/><path class="cls-1" d="M250.71,219.48c-11.42-10.83-25.21-11.84-39.65-6.44-2.48.92-8,2.76-8,2.76s-2.08-1.71-3.94-3.07c-17.64-12.94-28.16-12.88-45.86-.77-2,1.37-5.11,3.3-5.11,3.3a53.81,53.81,0,0,1-4.94-3c-16.9-12-32-12.58-45-1.58a39,39,0,0,0-5,5s-4.59-1.72-6.7-2.53c-14.73-5.62-28.8-5.08-40.74,6.46s-12.66,25.8-8.08,40.68c6.58,21.39,20.39,38,35.92,53.5a54.11,54.11,0,0,0,4.6,3.89h140s2.61-2.41,3.8-3.58c16.39-15.9,30.91-33,37.68-55.44C264.18,243.89,262.07,230.25,250.71,219.48Zm-166.54,82a4.25,4.25,0,0,1-2.09-1.17C65.24,285.71,50,256.64,51.7,241.79,53,231,59.64,225.94,69.77,225.34c7.2-.43,18.47,4.37,18.47,4.37a80.31,80.31,0,0,0,0,11c1.49,19,14.58,34.89,26.42,49.29,2.69,3.27,6.58,7.71,10.34,11.48C112.72,301.48,84.17,301.43,84.17,301.43Zm64.34-3.06A51.63,51.63,0,0,1,135,288.55c-10.91-10.94-21.84-22.08-28.13-36.65-5.3-12.28-3.08-25.27,4.86-30,8.54-5.15,17.57-4.18,24.22,3.43,6.93,7.93,8.5,19.6,1,27.25-3,3.07-5.34,5.61-5.34,5.61l16.62,16.56s.47-.24,1.2-.66l15.95-15.9s-2.35-2.54-5.34-5.61c-7.46-7.65-5.89-19.32,1-27.25,6.65-7.61,15.68-8.58,24.22-3.43,7.94,4.77,10.16,17.76,4.86,30C183.89,266.47,173,277.61,162,288.55A51.68,51.68,0,0,1,148.51,298.37Zm66,2.12a4.29,4.29,0,0,1-2.09,1.17s-28.55,0-40.83,0c3.76-3.77,7.65-8.22,10.34-11.48,11.84-14.4,24.93-30.31,26.42-49.29a80.28,80.28,0,0,0,0-11s11.27-4.8,18.46-4.38c10.14.61,16.82,5.7,18.08,16.46C246.6,256.87,231.33,285.94,214.49,300.49Z"/></g></g></svg>
