<svg xmlns="http://www.w3.org/2000/svg" viewBox="0 0 1814.29 609.29"><defs><style>.cls-1{fill:#fff;}.cls-2{fill:#6ccb47;}.cls-3{fill:#fdfdfd;}</style></defs><title>Asset 1</title><g id="Layer_2" data-name="Layer 2"><g id="Layer_1-2" data-name="Layer 1"><path class="cls-1" d="M58.53,608.76v-.06c16,0,32,.44,48-.12,17.6-.63,34.22-7.39,39.51-24.37,9.92-31.81,11.27-69.16-26.69-85.32-19.94-8.49-38.72-19.7-58.69-28.11-13.12-5.53-15.81-14.69-13.44-26.58,2.46-12.34,12.43-13.39,22.77-13.31,15.1.12,30.2.17,45.3,0,26.17-.29,21.32,3.18,22.29-22.94.33-9.16-2.42-12.64-11.91-12.46-25.75.49-51.52-.08-77.27.26-17.54.23-32.26,6.71-40.62,23-15.53,30.29-2.85,68.52,27.39,83,19.94,9.57,40.1,18.69,60.17,28,13.15,6.1,13.95,17.63,11.82,29.43-2.18,12.1-12,14.06-22.47,14.07q-30.65,0-61.29,0c-23.54,0-23,0-23.35,23.21-.16,10.44,3.73,12.82,13.24,12.4C28.31,608.26,43.43,608.76,58.53,608.76Z"/><path class="cls-1" d="M1481.35,608.45h-32.71a3.64,3.64,0,0,1-3.65-3.64c-.07-16.75-.29-86.76.24-112.47.08-3.48-.06-9.16-.15-12.4a2.57,2.57,0,0,0-2.57-2.49h-21.69a2.82,2.82,0,0,1-2.82-2.82V449.27a2.82,2.82,0,0,1,2.82-2.82h21.69a2.57,2.57,0,0,0,2.57-2.49c.08-2.8.22-7.38.3-10.49.82-32.52,13.18-44.8,45.92-48.18,4-.4,8-.27,12-.28,7.39,0,15.42.22,19.32.35a2.49,2.49,0,0,1,2.4,2.49V414.7a2.48,2.48,0,0,1-2.73,2.47c-3.28-.31-8.61-.8-11-.8-12.38,0-21.59,4.37-25.39,16.95-1,3.17-1.06,7.79-1,10.62a2.56,2.56,0,0,0,2.55,2.53c2.28,0,5.74,0,8.54,0,9-.12,63,0,63,0l5,31h-76.43A2.57,2.57,0,0,0,1485,480V604.8A3.66,3.66,0,0,1,1481.35,608.45Z"/><path class="cls-1" d="M493.54,335.45h-16.8a1.88,1.88,0,0,1-1.88-1.87c0-8.6-.14-44.57.13-57.78,0-1.78,0-4.7-.08-6.37a1.32,1.32,0,0,0-1.32-1.27H462.45a1.45,1.45,0,0,1-1.45-1.45v-13a1.45,1.45,0,0,1,1.45-1.45h11.14a1.32,1.32,0,0,0,1.32-1.27c0-1.44.11-3.8.15-5.4.43-16.7,6.77-23,23.6-24.74a60,60,0,0,1,6.15-.15c3.8,0,7.92.11,9.93.18a1.27,1.27,0,0,1,1.23,1.28v13.79a1.27,1.27,0,0,1-1.4,1.27c-1.69-.16-4.43-.41-5.63-.41-6.36,0-11.09,2.25-13.05,8.71a20.4,20.4,0,0,0-.52,5.45,1.31,1.31,0,0,0,1.31,1.3c1,0,12.68.15,16.27.2a1.05,1.05,0,0,1,1,1.06v13.59a1.07,1.07,0,0,1-1.07,1.07H496.74a1.32,1.32,0,0,0-1.32,1.31v64.1A1.88,1.88,0,0,1,493.54,335.45Z"/><path class="cls-1" d="M59,608.76c-12.21,0-42.58-.2-53.77-.28A4.26,4.26,0,0,1,1,604.22V577.68a4.26,4.26,0,0,1,4.22-4.27c4.41,0,11.63-.08,18.61-.08q30.63,0,61.28,0c10.42,0,20.29-2,22.47-14.07,2.13-11.8,1.34-23.33-11.81-29.43-20.07-9.32-40.24-18.44-60.18-28A64.54,64.54,0,0,1,7,473.45c-8.49-17-8-36.66,1.21-54.68,8.36-16.31,23.07-22.79,40.61-23,22.11-.29,72-.3,85.65-.3A3.53,3.53,0,0,1,138,399v28a3.53,3.53,0,0,1-3.49,3.53c-12,.12-51.35.5-64.09.4-10.34-.08-20.31,1-22.77,13.31-2.37,11.89.31,21.05,13.43,26.58,20,8.41,38.75,19.62,58.7,28.11,37.95,16.16,39.22,52.56,26.69,85.32C140,600.45,124.55,608,107,608.58c-16,.56-32,.12-48,.12Z"/><path class="cls-1" d="M300.5,413.45h31A4.49,4.49,0,0,1,336,418v86.5h13l42.08-54.24a9.73,9.73,0,0,1,7.68-3.76h33.12a3.49,3.49,0,0,1,2.75,5.63L380,522.45l63.53,80.35a3.49,3.49,0,0,1-2.73,5.65H407.69a9.73,9.73,0,0,1-7.61-3.67L349,540.45H336V604a4.49,4.49,0,0,1-4.5,4.5h-31A4.49,4.49,0,0,1,296,604V418A4.49,4.49,0,0,1,300.5,413.45Z"/><path class="cls-1" d="M466.5,413.45h31A4.49,4.49,0,0,1,502,418v86.5h13l42.08-54.24a9.73,9.73,0,0,1,7.68-3.76h33.12a3.49,3.49,0,0,1,2.75,5.63L546,522.45l63.53,80.35a3.49,3.49,0,0,1-2.73,5.65H573.69a9.73,9.73,0,0,1-7.61-3.67L515,540.45H502V604a4.49,4.49,0,0,1-4.5,4.5h-31A4.49,4.49,0,0,1,462,604V418A4.49,4.49,0,0,1,466.5,413.45Z"/><path class="cls-1" d="M1670.5,413.45h31a4.49,4.49,0,0,1,4.5,4.5v86.5h13l42.08-54.24a9.73,9.73,0,0,1,7.68-3.76h33.12a3.49,3.49,0,0,1,2.75,5.63L1750,522.45l63.53,80.35a3.49,3.49,0,0,1-2.73,5.65h-33.11a9.73,9.73,0,0,1-7.61-3.67L1719,540.45h-13V604a4.49,4.49,0,0,1-4.5,4.5h-31a4.49,4.49,0,0,1-4.5-4.5V418A4.49,4.49,0,0,1,1670.5,413.45Z"/><path class="cls-1" d="M662.32,540.45a2.46,2.46,0,0,0-2.46,2.35,44.48,44.48,0,0,0,.11,6.82c1.82,14.31,15.42,25.86,33.47,26.88,11.28.64,38.53.86,49.19.93a4.39,4.39,0,0,1,4.37,4.4v22.42a4.4,4.4,0,0,1-4.21,4.4c-13.4.57-55.26,1.92-73.89-2.6-31.19-7.58-47.9-28.6-48.9-61,0-10.63-1.88-39,1.41-58.44,3.49-20.53,15.54-33.43,35.18-39.1,21.37-6.17,43-6.69,64.16.73s32,23,32.34,45.39c.15,9.85,0,33.5-.06,42.87a4,4,0,0,1-3.95,3.92Zm49.43-28a3.28,3.28,0,0,0,3.29-3.27,98.75,98.75,0,0,0-.39-10.28c-1.12-9.67-1.24-16.95-11.65-21.45-11.2-4.85-26.47-5-36.55,3.64-6.55,5.62-6.79,21.77-6.59,28.43a3,3,0,0,0,3,2.93Z"/><path class="cls-1" d="M308.11,300.51a1.25,1.25,0,0,0-1.24,1.19,22.15,22.15,0,0,0,.06,3.45c.91,7.23,7.79,13.06,16.91,13.58,5.69.32,19.46.43,24.84.46a2.23,2.23,0,0,1,2.21,2.23v11.32a2.23,2.23,0,0,1-2.13,2.23c-6.76.29-27.91,1-37.32-1.32-15.76-3.82-24.2-14.44-24.71-30.8,0-5.37-1-19.71.72-29.52,1.76-10.37,7.85-16.89,17.77-19.75,10.8-3.12,21.7-3.38,32.41.37S353.8,265.57,354,276.88c.07,5,0,16.92,0,21.65a2,2,0,0,1-2,2Zm25-14.14a1.67,1.67,0,0,0,1.66-1.65,50.65,50.65,0,0,0-.2-5.2c-.57-4.88-.63-8.56-5.89-10.83-5.66-2.45-13.37-2.53-18.46,1.84-3.31,2.84-3.43,11-3.33,14.36a1.53,1.53,0,0,0,1.53,1.48Z"/><path class="cls-1" d="M1008.88,430.45H954.12a3.12,3.12,0,0,1-3.12-3.12V398.57a3.12,3.12,0,0,1,3.12-3.12h158.76a3.12,3.12,0,0,1,3.12,3.12v28.76a3.12,3.12,0,0,1-3.12,3.12h-55.76a3.12,3.12,0,0,0-3.12,3.12V605.33a3.12,3.12,0,0,1-3.12,3.12h-35.76a3.12,3.12,0,0,1-3.12-3.12V433.57A3.12,3.12,0,0,0,1008.88,430.45Z"/><path class="cls-1" d="M783,605.41V580.49a3,3,0,0,1,3-3h15.33a2.63,2.63,0,0,0,2.63-2.63V480.08a2.63,2.63,0,0,0-2.63-2.63H786a3,3,0,0,1-3-3v-25a3,3,0,0,1,3-3c12.48-.12,60.65-.53,82.17,0,29.9.76,42.83,19,42.83,39-.15,1,0,17,0,19,0,1.36-1,2-2.36,2.06-1.06,0-22.47,0-30.57-.05a3,3,0,0,1-3-3.06c0-2.42,0-5.73,0-7.95-.54-15-9-18-26-18h-3.37a2.63,2.63,0,0,0-2.63,2.63v94.74a2.63,2.63,0,0,0,2.63,2.63H882a3,3,0,0,1,3,3v24.92a3,3,0,0,1-3,3H786A3,3,0,0,1,783,605.41Z"/><path class="cls-1" d="M605,333.92v-12.6a1.53,1.53,0,0,1,1.53-1.53h7.75a1.34,1.34,0,0,0,1.33-1.33V270.59a1.34,1.34,0,0,0-1.33-1.33h-7.75a1.54,1.54,0,0,1-1.53-1.53V255.12a1.53,1.53,0,0,1,1.52-1.54c6.3-.06,30.64-.27,41.52,0,15.1.39,21.63,9.61,21.63,19.71-.07.51,0,8.59,0,9.6,0,.69-.5,1-1.19,1-.53,0-11.35,0-15.45,0a1.53,1.53,0,0,1-1.52-1.55c0-1.22,0-2.9,0-4-.27-7.56-4.54-9.09-13.13-9.09h-1.7a1.33,1.33,0,0,0-1.33,1.33v47.87a1.33,1.33,0,0,0,1.33,1.33H655a1.53,1.53,0,0,1,1.54,1.53v12.6a1.54,1.54,0,0,1-1.54,1.53H606.53A1.54,1.54,0,0,1,605,333.92Z"/><path class="cls-1" d="M1118,605.41V580.49a3,3,0,0,1,3-3h15.33a2.63,2.63,0,0,0,2.63-2.63V480.08a2.63,2.63,0,0,0-2.63-2.63H1121a3,3,0,0,1-3-3v-25a3,3,0,0,1,3-3c12.48-.12,60.65-.53,82.17,0,29.9.76,42.83,19,42.83,39-.15,1,0,17,0,19,0,1.36-1,2-2.36,2.06-1.06,0-22.47,0-30.57-.05a3,3,0,0,1-3-3.06c0-2.42,0-5.73,0-7.95-.54-15-9-18-26-18h-3.37a2.63,2.63,0,0,0-2.63,2.63v94.74a2.63,2.63,0,0,0,2.63,2.63H1217a3,3,0,0,1,3,3v24.92a3,3,0,0,1-3,3H1121A3,3,0,0,1,1118,605.41Z"/><path class="cls-1" d="M243.19,578.45h20.94a2.88,2.88,0,0,1,2.87,2.87v24.26a2.88,2.88,0,0,1-2.87,2.87H176.61a2.61,2.61,0,0,1-2.61-2.61V581.06a2.61,2.61,0,0,1,2.61-2.61h19.62a3.76,3.76,0,0,0,3.77-3.76c0-12.57,0-81.76,0-95a2.2,2.2,0,0,0-2.21-2.2H183.24a3.24,3.24,0,0,1-3.24-3.24V449.7a3.24,3.24,0,0,1,3.24-3.25H237.6a2.34,2.34,0,0,1,2.35,2.39c0,2.27,0,108.9,0,126.42A3.21,3.21,0,0,0,243.19,578.45Z"/><path class="cls-1" d="M69,286.71c8,11.62,27.56,39.44,32.68,46.83a1.22,1.22,0,0,1-1,1.91H81.8A3.45,3.45,0,0,1,79,334L47.59,289.29a3.29,3.29,0,0,1-.59-1.87V273.53a2.08,2.08,0,0,1,2.08-2.08H67.94A8.06,8.06,0,0,0,76,263.39V245.51a8.06,8.06,0,0,0-8.06-8.06H40.12A2.12,2.12,0,0,0,38,239.57V333a2.42,2.42,0,0,1-2.42,2.42H19.42A2.41,2.41,0,0,1,17,333c0-11.5,0-61.18,0-83.49,0-3.56,0-12.1,0-12.1H8.27A2.27,2.27,0,0,1,6,235.18V223.7a2.26,2.26,0,0,1,2.25-2.27c9.87-.09,49.69-.4,67.5.19,10.16.33,17.53,6.1,19.81,16.63a72.81,72.81,0,0,1,.14,30.37C93.32,280,90,284.45,69,286.71Z"/><path class="cls-1" d="M378.61,268.45H367.54a1.54,1.54,0,0,1-1.54-1.54V254a1.54,1.54,0,0,1,1.54-1.54h11.07a1.39,1.39,0,0,0,1.39-1.39V233a1.54,1.54,0,0,1,1.54-1.54h16.92A1.54,1.54,0,0,1,400,233v18.07a1.39,1.39,0,0,0,1.39,1.39h16.07A1.54,1.54,0,0,1,419,254v12.92a1.54,1.54,0,0,1-1.54,1.54H401.39a1.38,1.38,0,0,0-1.39,1.38c0,5.66-.06,27.11-.33,33.61-.4,9.51.93,17,13.26,16,1.24-.1,3.2-.07,4.56,0A1.55,1.55,0,0,1,419,321v13.11a1.54,1.54,0,0,1-1.39,1.54,50.61,50.61,0,0,1-5.2.34c-4.87-.09-9.75.12-14.62-.07-12.15-.46-19-6-18.31-19,.3-5.51.48-39.64.51-47A1.37,1.37,0,0,0,378.61,268.45Z"/><path class="cls-1" d="M241.69,406c0,13.77-10.86,24.45-24.42,24.09-12.67-.33-23.36-11.39-23.38-24.19,0-13.12,11.66-24.46,24.81-24.09A23.92,23.92,0,0,1,241.69,406Z"/><path class="cls-1" d="M1613.19,578.45h20.94a2.88,2.88,0,0,1,2.87,2.87v24.26a2.88,2.88,0,0,1-2.87,2.87h-87.52a2.61,2.61,0,0,1-2.61-2.61V581.06a2.61,2.61,0,0,1,2.61-2.61h19.62a3.76,3.76,0,0,0,3.77-3.76c0-12.57,0-81.76,0-95a2.2,2.2,0,0,0-2.21-2.2h-14.55a3.24,3.24,0,0,1-3.24-3.24V449.7a3.24,3.24,0,0,1,3.24-3.25h54.36a2.34,2.34,0,0,1,2.35,2.39c0,2.27,0,108.9,0,126.42A3.21,3.21,0,0,0,1613.19,578.45Z"/><path class="cls-1" d="M1611.69,406c0,13.77-10.86,24.45-24.42,24.09-12.67-.33-23.36-11.39-23.38-24.19,0-13.12,11.66-24.46,24.81-24.09A23.92,23.92,0,0,1,1611.69,406Z"/><path class="cls-1" d="M1356.92,592.57a2,2,0,0,0-3.53-.2c-5,8.85-12.57,15.54-22,16.13-15.9,1-25.51,1-37.61-.64a32,32,0,0,1-6.16-1.88c-17.47-6-26.67-18.69-28.39-36.65-1.93-20.15,3.47-37.2,22.92-47,15.67-7.89,57.57-14.68,65.63-15.93a2,2,0,0,0,1.62-1.59c.18-1,.41-2.44.54-3.86.7-8.25.18-16.16-7.92-21.19-6.21-3.86-12.89-5.41-20.25-5.65-13.89-.47-27.55,1.62-41.22,3.25-2.55.3-7.08.74-9.76,1a2,2,0,0,1-2.15-2V451.54a5.06,5.06,0,0,1,4.19-5c3.94-.69,10.08-1.66,15.85-2.16,19.09-1.78,38-3.34,57.16.12,29.79,5.38,44.23,21.95,44.3,52.15q.06,32.07,0,64.14c0,7.63-1.35,15.07,7.06,17.47a11.31,11.31,0,0,0,1.78.55,5.57,5.57,0,0,1,4.22,5.44v18.55a5.48,5.48,0,0,1-5.48,5.49h-5.33C1376.85,608.3,1363.3,608.38,1356.92,592.57ZM1350,535.78a2,2,0,0,0-2.44-1.92c-12,2.87-22.43,5.21-32.79,8-10.69,2.91-16.64,9.78-15.53,21.38s9.79,13.53,19.07,14.1c23.17,1.43,31.5-6.46,31.68-29.74C1350,543.91,1350,540.2,1350,535.78Z"/><path class="cls-1" d="M162.69,327.74a1,1,0,0,0-1.79-.1c-2.54,4.5-6.39,7.9-11.18,8.2-8.08.51-13,.51-19.12-.33a17.36,17.36,0,0,1-3.13-.95c-8.88-3.06-13.55-9.5-14.42-18.63-1-10.24,1.76-18.91,11.65-23.89,8-4,29.25-7.45,33.35-8.09a1,1,0,0,0,.82-.81,19,19,0,0,0,.27-2c.36-4.19.1-8.21-4-10.77a20.06,20.06,0,0,0-10.29-2.87c-7.06-.24-14,.82-21,1.65-1.29.15-3.6.38-5,.51a1,1,0,0,1-1.09-1V256.07a2.56,2.56,0,0,1,2.13-2.53c2-.35,5.12-.85,8.06-1.1,9.69-.91,19.32-1.7,29,.06,15.14,2.73,22.48,11.15,22.52,26.5q0,16.29,0,32.6c0,3.87-.69,7.65,3.58,8.87a5.71,5.71,0,0,0,.91.29,2.82,2.82,0,0,1,2.15,2.76V333a2.79,2.79,0,0,1-2.79,2.79h-2.71C172.82,335.74,165.94,335.78,162.69,327.74Zm-3.51-28.86a1,1,0,0,0-1.24-1c-6.07,1.45-11.4,2.64-16.66,4.07-5.44,1.48-8.46,5-7.89,10.87s5,6.87,9.69,7.16c11.77.73,16-3.28,16.1-15.11C159.19,303,159.18,301.12,159.18,298.88Z"/><path class="cls-1" d="M149.75,213.7a17.5,17.5,0,1,0,17.5,17.5A17.51,17.51,0,0,0,149.75,213.7Zm0,24.5a7,7,0,1,1,7-7A7,7,0,0,1,149.75,238.2Z"/><path class="cls-1" d="M268.41,222.45H250.6a1.6,1.6,0,0,0-1.6,1.6v25.83a2.5,2.5,0,0,1-2.58,2.5c-3.2-.11-8.79-.37-13.44-.95-23.66-3-34.66,8.28-34.7,31.71q0,11.31,0,22.61c0,23.8,7.77,31.63,31.84,31.79a99.42,99.42,0,0,0,18.5-1.29c15.85-2.93,21.15-9.3,21.43-25.29.22-12.85,0-25.72,0-38.58,0-12-.07-41.21-.09-48.34A1.59,1.59,0,0,0,268.41,222.45ZM249,316a2.12,2.12,0,0,1-1.38,2c-3.33,1.26-7.63,3.42-12.46,3.42h-4.32A13.88,13.88,0,0,1,217,307.61V282.29a13.87,13.87,0,0,1,12.73-13.78,29.2,29.2,0,0,1,4.65-.32A67.85,67.85,0,0,1,246.9,270a2.7,2.7,0,0,1,2.1,2.63Z"/><path class="cls-1" d="M570.84,250.71h-22.3c-12.84,0-24.35,11.51-24.35,24.36v36.21c0,12.84,11.51,24.35,24.35,24.35h22.3c12.84,0,24.35-11.51,24.35-24.35V275.07C595.19,262.22,583.68,250.71,570.84,250.71Zm4.15,57c0,6.6-5.4,13-12,13h-6.6c-6.6,0-12-6.4-12-13V278.63c0-6.6,5.4-13,12-13H563c6.6,0,12,6.4,12,13Z"/><circle class="cls-2" cx="909.25" cy="148.5" r="148.5"/><rect class="cls-3" x="838.75" y="235.45" width="141" height="16" rx="1.24"/><path class="cls-1" d="M916.25,54.54V44.2A1.75,1.75,0,0,1,918,42.45h11.55a1.7,1.7,0,0,0,1.7-1.7V29.15a1.7,1.7,0,0,0-1.7-1.7H918a1.75,1.75,0,0,1-1.75-1.75V14.15a1.7,1.7,0,0,0-1.7-1.7H903a1.7,1.7,0,0,0-1.7,1.7V25.7a1.74,1.74,0,0,1-1.74,1.75H889a1.7,1.7,0,0,0-1.7,1.7v11.6a1.7,1.7,0,0,0,1.7,1.7h10.56a1.74,1.74,0,0,1,1.74,1.75V54.88a23,23,0,1,0,15-.34Zm-7,31.91a10,10,0,1,1,10-10A10,10,0,0,1,909.25,86.45Z"/><path class="cls-1" d="M1011.46,125.18c-11.42-10.83-25.21-11.84-39.65-6.44-2.48.92-8,2.76-8,2.76s-2.08-1.71-3.94-3.07c-17.64-12.94-28.16-12.88-45.86-.77-2,1.37-5.11,3.3-5.11,3.3a53.81,53.81,0,0,1-4.94-3c-16.9-12-32-12.58-45-1.58a39,39,0,0,0-5,5s-4.59-1.72-6.7-2.53c-14.72-5.62-28.8-5.08-40.74,6.46s-12.66,25.8-8.08,40.68c6.58,21.39,20.39,38,35.92,53.51a57.07,57.07,0,0,0,4.6,3.88H979s2.61-2.41,3.81-3.58c16.38-15.9,30.9-33,37.67-55.44C1024.94,149.59,1022.82,136,1011.46,125.18ZM844.92,207.13a4.29,4.29,0,0,1-2.09-1.17c-16.84-14.55-32.11-43.62-30.38-58.46,1.26-10.77,7.94-15.86,18.08-16.46,7.19-.43,18.46,4.37,18.46,4.37a80.31,80.31,0,0,0,0,11c1.49,19,14.59,34.89,26.42,49.29,2.69,3.27,6.58,7.71,10.34,11.49C873.47,207.19,844.92,207.13,844.92,207.13Zm64.34-3.06a51.81,51.81,0,0,1-13.54-9.82c-10.91-10.94-21.84-22.08-28.13-36.65-5.29-12.28-3.08-25.27,4.86-30,8.54-5.15,17.58-4.18,24.22,3.43,6.93,7.93,8.5,19.6,1,27.25-3,3.07-5.34,5.61-5.34,5.61L909,180.41s.48-.24,1.21-.66l15.95-15.9s-2.35-2.54-5.34-5.61c-7.46-7.65-5.89-19.32,1-27.25,6.65-7.61,15.69-8.58,24.23-3.43,7.93,4.77,10.15,17.76,4.85,30-6.28,14.57-17.21,25.71-28.13,36.65A51.68,51.68,0,0,1,909.26,204.07Zm66,2.12a4.24,4.24,0,0,1-2.08,1.17s-28.55,0-40.84,0c3.76-3.77,7.66-8.22,10.34-11.48,11.84-14.4,24.93-30.31,26.42-49.29a80.28,80.28,0,0,0,0-11s11.28-4.8,18.47-4.38c10.14.61,16.81,5.7,18.07,16.46C1007.35,162.57,992.08,191.64,975.24,206.19Z"/></g></g></svg>
