<svg xmlns="http://www.w3.org/2000/svg" viewBox="0 0 382.65 391.94"><defs><style>.cls-1{fill:#4a5159;}.cls-2{fill:#edeff0;}.cls-3{fill:#bbbdbd;}.cls-4{fill:#56ff00;}.cls-5{fill:#fbe258;}</style></defs><title>lygte</title><g id="Layer_2" data-name="Layer 2"><g id="Layer_1-2" data-name="Layer 1"><path class="cls-1" d="M216.68,362.41q-.09,14.76-.17,29.53h-50.4l0-28.88a21.23,21.23,0,0,0,.49-3.93c-1-16.5-.63-33-.27-49.51.38-17.59,18.11-28.81,34.53-22.5a24.55,24.55,0,0,1,15.66,22.55C216.67,327.25,216.64,344.83,216.68,362.41Z"/><path class="cls-2" d="M75.71,158.28c-.12,3.76-3.17,5.36-5.61,7.2-6.35,4.78-13.91,6.29-21.56,7.22-8,1-16,1.61-24,2.48A6.47,6.47,0,0,0,18.81,179c-3.84,7.56-13.12,7.69-17.69.53-.56-.88-1.88-7.2-.54-10.59,3.09-7.85,9.43-11.34,17.28-13.05s16-1.56,24-3.08a33,33,0,0,0,8.35-2.42c.06,1.56,1.26,1.34,2.28,1.58C60.28,153.83,68.32,154.87,75.71,158.28Z"/><path class="cls-2" d="M379.93,181.72c-5.49,5.06-13.19,3.63-16-3.27a4.63,4.63,0,0,0-4.15-3.08c-5.76-.77-11.55-1.45-17.35-1.79a76.79,76.79,0,0,1-25.14-5.35,20.29,20.29,0,0,1-10.41-9.9,17.89,17.89,0,0,1,1.71-.82c8.07-2.83,16.48-4.31,24.75-6.37,10.49,2.93,21.47,2.59,32.06,4.82,6.41,1.36,12.1,3.95,15.62,9.9C382.43,168.25,384.29,177.34,379.93,181.72Z"/><path class="cls-3" d="M233.29,183.09c-2.62,8.9-6.38,17.1-13.42,23.53-3.49,3.18-7.66,5.19-11.5,7.76-7.84,2.47-15.7,4.19-24,2.47-3.24-.66-6.19-2.23-9.49-2.5-13.09-6.57-21.7-16.69-24.75-31.22-2.24-10.8.76-20.65,5.55-30.16,6.56-9.18,15-15.71,26.12-18.43,15.86-3.86,33.61,2.4,43.33,15.53a9.65,9.65,0,0,0,2.65,2.93,6,6,0,0,0,.35,1.93C233.32,163.68,233.79,173.29,233.29,183.09Zm-62.48-7.79c-1,10,7.74,20.91,20.76,21.27,11,.31,20.88-9.7,20.92-20.93,0-11.66-9.48-21.38-21-21.21C179,154.6,169.82,165.62,170.81,175.3Z"/><path class="cls-1" d="M92.45,147.77l-8.53-3.39a128.21,128.21,0,0,0-21.08-6c-13.94-3.51-28.18-5.37-42.4-7.24-9-1.18-15.24-8.4-14.25-17A15.24,15.24,0,0,1,23.5,100.89c20.81,2.73,41.59,5.77,61.76,11.85,5.58,1.68,11.18,3.33,16.31,6.21Z"/><path class="cls-1" d="M300.44,144.07,291,147.74c-.53-1.36-1.12-2.7-1.58-4.09-2.73-8.2-5.42-16.41-8.13-24.62,12.27-6,25.51-9,38.75-11.8,13-2.77,26.21-4.63,39.41-6.34a15,15,0,0,1,17.31,13.27c1,8.55-4.79,15.73-13.73,17-14.23,2-28.49,3.75-42.47,7.24A108,108,0,0,0,300.44,144.07Z"/><path class="cls-4" d="M281.26,119c2.71,8.21,5.4,16.42,8.13,24.62.46,1.39,1.05,2.73,1.58,4.09-9.12,4.35-15.33,12.27-22.8,18.63C258,175,246.12,180,233.29,183.09c.5-9.8,0-19.41-5.2-28.16a6,6,0,0,1-.35-1.93,55.09,55.09,0,0,0,26.6-15.22C262,129.78,270.76,123.09,281.26,119Z"/><path class="cls-4" d="M92.45,147.77,101.57,119c7.89,2.84,14.62,7.57,20.9,13,3.32,2.87,6.47,5.95,9.65,9,6.65,6.35,14.77,9.81,23.52,12.06-4.79,9.51-7.79,19.36-5.55,30.16-13.71-3.1-26.32-8.59-36.77-18.15C106.65,158.87,100.42,152.28,92.45,147.77Z"/><path class="cls-3" d="M62.84,138.42a128.21,128.21,0,0,1,21.08,6c-2.61,1.53-2.14,4.58-3.33,6.81-1.37,2.55-1.66,5.82-4.88,7.09-7.39-3.41-15.43-4.45-23.24-6.32-1-.24-2.22,0-2.28-1.58C56.3,148.4,61,144.89,62.84,138.42Z"/><path class="cls-3" d="M300.44,144.07a108,108,0,0,1,20.09-5.7c.66,6,5.19,8.56,9.75,11.09,1,.56,2.28.71,3.09,1.68-8.27,2.06-16.68,3.54-24.75,6.37a17.89,17.89,0,0,0-1.71.82C302.68,154.52,301.6,149.28,300.44,144.07Z"/><path class="cls-4" d="M174.84,214.35c3.3.27,6.25,1.84,9.49,2.5,8.34,1.72,16.2,0,24-2.47,0,12.11.11,24.22,0,36.33,0,2.36.67,3.51,3,4.3,23.06,7.95,39.72,31.29,38.95,55.72-.24,7.56.14,15.15.24,22.73a194.28,194.28,0,0,0,0,25c-.38,5.56-2.31,10.37-6.94,13.77a17,17,0,0,1-24.85-5.49c-.77-1.39-1.4-2.86-2.09-4.29,0-17.58,0-35.16-.13-52.74a24.55,24.55,0,0,0-15.66-22.55c-16.42-6.31-34.15,4.91-34.53,22.5-.36,16.49-.7,33,.27,49.51a21.23,21.23,0,0,1-.49,3.93c-1.72,3.1-3.08,6.43-6.06,8.67-5.49,4.1-11.56,4.9-17.64,2.14-6.43-2.91-9.66-8.42-10-15.51q0-12.42,0-24.85.06-11.76.13-23.53a58.77,58.77,0,0,1,38.63-54.74c2.91-1,3.78-2.38,3.73-5.38C174.73,238,174.84,226.18,174.84,214.35Z"/><path class="cls-2" d="M132.41,333.51q0,12.44,0,24.85c-4.11,0-8.22,0-12.34,0a11.44,11.44,0,0,1-11.55-11.16c-.18-8,4.11-13.3,11.16-13.6C123.91,333.39,128.16,333.52,132.41,333.51Z"/><path class="cls-2" d="M250.56,358.42a194.28,194.28,0,0,1,0-25q6,0,12,.08a12.6,12.6,0,0,1,12.36,12.51,12.09,12.09,0,0,1-12.35,12.29Z"/><path class="cls-5" d="M170.81,175.3c-1-9.68,8.17-20.7,20.72-20.87,11.48-.17,21,9.55,21,21.21,0,11.23-9.89,21.24-20.92,20.93C178.55,196.21,169.85,185.31,170.81,175.3Z"/><rect class="cls-5" x="183.08" width="19.88" height="99.99" rx="9.94"/><rect class="cls-5" x="115.19" y="23.67" width="19.88" height="99.99" rx="9.94" transform="translate(265.7 37.27) rotate(135)"/><rect class="cls-5" x="252.09" y="23.67" width="19.88" height="99.99" rx="9.94" transform="translate(128.84 -163.71) rotate(45)"/></g></g></svg>
