<svg xmlns="http://www.w3.org/2000/svg" viewBox="0 0 225 225"><defs><style>.cls-1{fill:#ccc;}</style></defs><title>ticon_1</title><g id="Layer_2" data-name="Layer 2"><g id="Layer_1-2" data-name="Layer 1"><path class="cls-1" d="M112.5,5a107.49,107.49,0,0,1,76,183.51,107.49,107.49,0,1,1-152-152A106.77,106.77,0,0,1,112.5,5m0-5A112.5,112.5,0,1,0,225,112.5,112.5,112.5,0,0,0,112.5,0Z"/><path class="cls-1" d="M143.3,98.18V76.93H118.93V48.79L94,55.45V76.93H79.49V98.18H94V145.1c0,13.05,2.44,21.69,7.67,27.18,4.91,5.56,12.31,8.5,21.43,8.5,6.62,0,12.54-.94,16.67-2.64L142.5,177l-1.26-20.81-4.92,1.34a33.69,33.69,0,0,1-8.77,1c-4.36,0-8.62-1.08-8.62-14V98.18Z"/></g></g></svg>
